# xmcd
#
# Track frame offsets:
#	150
#	16777
#	40747
#	55148
#	70040
#	91467
#	109664
#	135547
#	149898
#	161794
#	177509
#	195150
#	219130
#
# Disc length: 3117 seconds
#
# Revision: 1
# Processed by: cddbd v1.5.2PL0 Copyright (c) Steve Scherf et al.
# Submitted via: audiograbber 1.83.01
#
DISCID=b00c2b0d
DTITLE=Captain Ahab And The Red Bananas - Own Ways
DYEAR=1996
DGENRE=Blues
TTITLE0=Be Yourself
TTITLE1=Sweet Home
TTITLE2=Thick And Thin
TTITLE3=Make My Day
TTITLE4=Outcast
TTITLE5=Namasté
TTITLE6=Good Girl
TTITLE7=Small Box
TTITLE8=I Turn You
TTITLE9=Always The Same
TTITLE10=Remainings
TTITLE11=Own Ways
TTITLE12=Rio Lahno
EXTD=
EXTT0=
EXTT1=
EXTT2=
EXTT3=
EXTT4=
EXTT5=
EXTT6=
EXTT7=
EXTT8=
EXTT9=
EXTT10=
EXTT11=
EXTT12=
PLAYORDER=
